<svg width="317" height="63" viewBox="0 0 317 63" fill="none" xmlns="http://www.w3.org/2000/svg">
<path d="M88.4625 16.192H98.7665L104.975 35.072L110.287 16.192H119.823L109.967 48H100.303L93.3905 27.456L86.6065 48H76.7505L66.7665 16.192H76.8785L82.1905 35.008L88.4625 16.192ZM131.211 28.288H143.947C143.861 26.8373 143.285 25.5787 142.219 24.512C141.195 23.4453 139.637 22.912 137.547 22.912C135.669 22.912 134.176 23.4667 133.067 24.576C131.957 25.6853 131.339 26.9227 131.211 28.288ZM144.651 36.544L152.779 38.848C151.968 41.792 150.283 44.224 147.723 46.144C145.163 48.0213 141.963 48.96 138.123 48.96C133.515 48.96 129.589 47.424 126.347 44.352C123.147 41.28 121.547 37.1627 121.547 32C121.547 27.0507 123.104 23.0187 126.219 19.904C129.376 16.7893 133.109 15.232 137.419 15.232C142.368 15.232 146.251 16.6827 149.067 19.584C151.925 22.4427 153.354 26.432 153.354 31.552C153.354 33.1733 153.291 34.176 153.163 34.56H131.019C131.104 36.3093 131.851 37.7813 133.259 38.976C134.667 40.128 136.331 40.704 138.251 40.704C141.536 40.704 143.669 39.3173 144.651 36.544ZM169.009 48H159.601V1.664H169.137V19.2C169.862 18.1333 171.057 17.2373 172.721 16.512C174.385 15.7867 176.262 15.424 178.353 15.424C182.875 15.424 186.459 16.9813 189.104 20.096C191.793 23.168 193.137 27.136 193.137 32C193.137 36.864 191.707 40.8747 188.849 44.032C186.033 47.1467 182.406 48.704 177.969 48.704C175.921 48.704 174.107 48.32 172.529 47.552C170.95 46.7413 169.777 45.696 169.009 44.416V48ZM183.409 32.064C183.409 29.504 182.726 27.5627 181.361 26.24C179.995 24.8747 178.289 24.192 176.241 24.192C174.193 24.192 172.465 24.8747 171.057 26.24C169.691 27.5627 169.009 29.504 169.009 32.064C169.009 34.5813 169.713 36.544 171.121 37.952C172.529 39.3173 174.235 40 176.241 40C178.246 40 179.931 39.3173 181.297 37.952C182.705 36.544 183.409 34.5813 183.409 32.064ZM209.141 60.16H199.413V16.192H208.821V19.456C209.546 18.3467 210.741 17.408 212.405 16.64C214.112 15.8293 216.032 15.424 218.165 15.424C222.688 15.424 226.272 16.9813 228.917 20.096C231.605 23.168 232.949 27.136 232.949 32C232.949 36.864 231.52 40.8747 228.661 44.032C225.845 47.1467 222.218 48.704 217.781 48.704C213.77 48.704 210.89 47.6373 209.141 45.504V60.16ZM221.301 37.952C222.709 36.544 223.413 34.5813 223.413 32.064C223.413 29.5467 222.709 27.6053 221.301 26.24C219.936 24.8747 218.229 24.192 216.181 24.192C214.176 24.192 212.469 24.8747 211.061 26.24C209.696 27.6053 209.013 29.5467 209.013 32.064C209.013 34.5813 209.696 36.544 211.061 37.952C212.469 39.3173 214.176 40 216.181 40C218.229 40 219.936 39.3173 221.301 37.952ZM237.306 39.232C237.306 36.544 238.18 34.3893 239.93 32.768C241.679 31.104 243.94 30.0587 246.714 29.632L254.202 28.48C255.738 28.2667 256.506 27.5413 256.506 26.304C256.506 25.3227 256.079 24.512 255.226 23.872C254.415 23.1893 253.284 22.848 251.833 22.848C250.212 22.848 248.911 23.3173 247.93 24.256C246.991 25.152 246.479 26.24 246.394 27.52L237.946 25.792C238.159 23.1467 239.46 20.736 241.85 18.56C244.282 16.3413 247.631 15.232 251.898 15.232C256.719 15.232 260.26 16.384 262.522 18.688C264.826 20.992 265.978 23.936 265.978 27.52V43.072C265.978 45.0773 266.106 46.72 266.362 48H257.594C257.38 47.1467 257.274 45.952 257.274 44.416C255.439 47.4027 252.452 48.896 248.314 48.896C244.943 48.896 242.255 47.9573 240.25 46.08C238.287 44.16 237.306 41.8773 237.306 39.232ZM250.682 41.856C252.346 41.856 253.732 41.3653 254.842 40.384C255.951 39.4027 256.506 37.7813 256.506 35.52V34.112L250.49 35.072C248.1 35.456 246.906 36.6293 246.906 38.592C246.906 39.488 247.204 40.256 247.802 40.896C248.442 41.536 249.402 41.856 250.682 41.856ZM285.706 60.224H275.466L282.698 43.712L269.322 16.192H280.202L287.946 33.216L294.986 16.192H305.29L285.706 60.224Z" fill="black"/>
<rect y="3" width="15" height="60" rx="2" transform="rotate(-10 0 3)" fill="#CC02FE"/>
<rect x="30" y="2.60472" width="15" height="60" rx="2" transform="rotate(-10 30 2.60472)" fill="#CC02FE"/>
</svg>
